<svg width="700" height="700" viewBox="0 0 700 700" fill="none" xmlns="http://www.w3.org/2000/svg">
<path fill-rule="evenodd" clip-rule="evenodd" d="M700 0H0V700H700V0ZM266 574C277.046 574 286 565.046 286 554H414C414 565.046 422.954 574 434 574H470C481.046 574 490 565.046 490 554H514.782C525.107 554 533.734 546.141 534.695 535.861L570.957 147.861C572.053 136.131 562.824 126 551.044 126H147.956C136.176 126 126.947 136.131 128.043 147.861L164.305 535.861C165.266 546.141 173.893 554 184.218 554H210C210 565.046 218.954 574 230 574H266Z" fill="#585161"/>
</svg>
