<svg width="700" height="700" viewBox="0 0 700 700" fill="none" xmlns="http://www.w3.org/2000/svg">
<path fill-rule="evenodd" clip-rule="evenodd" d="M700 0H0V700H700V0ZM180.973 551.606C150.04 548.116 126 521.866 126 490C126 468.217 137.233 449.059 154.223 438C137.233 426.941 126 407.783 126 386C126 364.217 137.233 345.059 154.223 334C137.233 322.941 126 303.783 126 282C126 263.208 134.36 246.37 147.563 235C134.36 223.63 126 206.792 126 188C126 153.758 153.758 126 188 126H512C546.242 126 574 153.758 574 188C574 206.792 565.64 223.63 552.437 235C565.64 246.37 574 263.208 574 282C574 303.783 562.767 322.941 545.777 334C562.767 345.059 574 364.217 574 386C574 407.783 562.767 426.941 545.777 438C562.767 449.059 574 468.217 574 490C574 521.866 549.96 548.116 519.027 551.606C515.66 564.491 503.941 574 490 574H210C196.059 574 184.34 564.491 180.973 551.606Z" fill="#585161"/>
</svg>
