<svg width="700" height="700" viewBox="0 0 700 700" fill="none" xmlns="http://www.w3.org/2000/svg">
<path fill-rule="evenodd" clip-rule="evenodd" d="M0 0H700V700H0V0ZM438.144 551.822C434.703 564.597 423.037 574 409.174 574H349.574H290.811C277.139 574 265.603 564.854 261.987 552.346C202.52 520.898 162 458.426 162 386.493C162 329.875 187.104 279.117 226.791 244.736C253.308 221.765 225.663 189.767 205.119 165.987C194.915 154.177 186.463 144.394 187.269 138.751C189.699 121.75 504.104 121.75 511.879 138.751C514.699 144.919 505.049 156.035 493.5 169.339C473.214 192.708 447.066 222.828 472.357 244.736C512.044 279.117 537.148 329.875 537.148 386.493C537.148 458.028 497.074 520.208 438.144 551.822Z" fill="#585161"/>
</svg>
